<svg width="60" height="60" viewBox="0 0 60 60" fill="none" xmlns="http://www.w3.org/2000/svg">
<path fill-rule="evenodd" clip-rule="evenodd" d="M23.7325 39.7926C23.7875 40.1194 23.7104 40.4548 23.5182 40.7248C23.326 40.9949 23.0344 41.1775 22.7075 41.2326C16.6212 42.2544 10.8219 44.5596 5.69502 47.9951C5.55869 48.0898 5.40487 48.1563 5.24254 48.1909C5.0802 48.2256 4.9126 48.2275 4.74951 48.1966C4.58642 48.1658 4.43111 48.1027 4.29264 48.0112C4.15418 47.9197 4.03533 47.8015 3.94303 47.6635C3.85073 47.5256 3.78682 47.3706 3.75505 47.2077C3.72328 47.0448 3.72427 46.8772 3.75796 46.7147C3.79166 46.5521 3.85739 46.3979 3.95131 46.2611C4.04524 46.1242 4.16548 46.0075 4.30502 45.9176C9.72587 42.2854 15.8574 39.8481 22.2925 38.7676C22.6194 38.7126 22.9547 38.7897 23.2248 38.9819C23.4948 39.1741 23.6774 39.4657 23.7325 39.7926ZM36.2675 39.7926C36.3226 39.4657 36.5052 39.1741 36.7753 38.9819C37.0453 38.7897 37.3806 38.7126 37.7075 38.7676C44.1426 39.8481 50.2742 42.2854 55.695 45.9176C55.8393 46.0052 55.9643 46.1212 56.0626 46.2585C56.1608 46.3958 56.2302 46.5515 56.2666 46.7164C56.303 46.8812 56.3057 47.0517 56.2744 47.2176C56.2431 47.3835 56.1785 47.5413 56.0846 47.6816C55.9906 47.8218 55.8692 47.9416 55.7277 48.0337C55.5862 48.1257 55.4275 48.1882 55.2612 48.2172C55.0949 48.2463 54.9245 48.2414 54.7601 48.2028C54.5958 48.1641 54.441 48.0926 54.305 47.9926C49.1779 44.558 43.3787 42.2536 37.2925 41.2326C36.9657 41.1775 36.6741 40.9949 36.4818 40.7248C36.2896 40.4548 36.2125 40.1194 36.2675 39.7926Z" fill="#CCCCCC"/>
<path fill-rule="evenodd" clip-rule="evenodd" d="M16.25 25C16.25 21.3533 17.6987 17.8559 20.2773 15.2773C22.8559 12.6987 26.3533 11.25 30 11.25C33.6467 11.25 37.1441 12.6987 39.7227 15.2773C42.3013 17.8559 43.75 21.3533 43.75 25C43.75 31.6525 40.435 37.5475 37.24 41.7C35.4812 43.9761 33.5116 46.0813 31.3575 47.9875L30.8275 48.4375L30.795 48.465L30.785 48.4725H30.7825L30 47.5L29.2825 48.525L29.2775 48.52L29.2675 48.5125L29.235 48.49L29.1175 48.405L28.695 48.0825C28.1914 47.6879 27.6995 47.2786 27.22 46.855C25.6071 45.4296 24.12 43.868 22.775 42.1875C19.55 38.1575 16.25 32.2625 16.25 25ZM30 47.5L29.2825 48.525C29.5042 48.6802 29.7703 48.7592 30.0408 48.7502C30.3113 48.7412 30.5716 48.6421 30.7825 48.4725L30 47.5ZM29.955 45.8925C31.8919 44.1503 33.6675 42.2367 35.26 40.175C38.315 36.2025 41.25 30.85 41.25 25C41.25 22.0163 40.0647 19.1548 37.955 17.045C35.8452 14.9353 32.9837 13.75 30 13.75C27.0163 13.75 24.1548 14.9353 22.045 17.045C19.9353 19.1548 18.75 22.0163 18.75 25C18.75 31.4875 21.7 36.8425 24.725 40.625C26.2767 42.5613 28.0299 44.327 29.955 45.8925ZM30 21.25C29.0054 21.25 28.0516 21.6451 27.3483 22.3483C26.6451 23.0516 26.25 24.0054 26.25 25C26.25 25.9946 26.6451 26.9484 27.3483 27.6517C28.0516 28.3549 29.0054 28.75 30 28.75C30.9946 28.75 31.9484 28.3549 32.6517 27.6517C33.3549 26.9484 33.75 25.9946 33.75 25C33.75 24.0054 33.3549 23.0516 32.6517 22.3483C31.9484 21.6451 30.9946 21.25 30 21.25ZM23.75 25C23.75 23.3424 24.4085 21.7527 25.5806 20.5806C26.7527 19.4085 28.3424 18.75 30 18.75C31.6576 18.75 33.2473 19.4085 34.4194 20.5806C35.5915 21.7527 36.25 23.3424 36.25 25C36.25 26.6576 35.5915 28.2473 34.4194 29.4194C33.2473 30.5915 31.6576 31.25 30 31.25C28.3424 31.25 26.7527 30.5915 25.5806 29.4194C24.4085 28.2473 23.75 26.6576 23.75 25Z" fill="#CCCCCC"/>
</svg>
