<svg width="60" height="60" viewBox="0 0 60 60" fill="none" xmlns="http://www.w3.org/2000/svg">
<path d="M17.6341 6.84599L18.6781 10.059C19.0019 11.0363 19.5498 11.9242 20.278 12.6519C21.0062 13.3797 21.8946 13.9269 22.8721 14.25L26.0881 15.294L26.1541 15.312C26.4019 15.3992 26.6165 15.5612 26.7684 15.7756C26.9202 15.99 27.0017 16.2463 27.0017 16.509C27.0017 16.7717 26.9202 17.0279 26.7684 17.2424C26.6165 17.4568 26.4019 17.6188 26.1541 17.706L22.9381 18.75C21.96 19.0727 21.0711 19.6197 20.3423 20.3475C19.6135 21.0752 19.0652 21.9634 18.7411 22.941L17.7001 26.151C17.6129 26.3988 17.4509 26.6134 17.2365 26.7653C17.0221 26.9171 16.7658 26.9986 16.5031 26.9986C16.2404 26.9986 15.9841 26.9171 15.7697 26.7653C15.5553 26.6134 15.3933 26.3988 15.3061 26.151L14.2621 22.941C13.9404 21.9601 13.3932 21.0683 12.6642 20.3373C11.9353 19.6063 11.0451 19.0565 10.0651 18.732L6.8491 17.688C6.60128 17.6008 6.38666 17.4388 6.23483 17.2244C6.083 17.0099 6.00146 16.7537 6.00146 16.491C6.00146 16.2283 6.083 15.972 6.23483 15.7576C6.38666 15.5432 6.60128 15.3812 6.8491 15.294L10.0651 14.25C11.0309 13.9186 11.9067 13.3676 12.6235 12.6404C13.3404 11.9131 13.8787 11.0295 14.1961 10.059L15.2401 6.84899C15.3267 6.60013 15.4886 6.38441 15.7034 6.23175C15.9181 6.07909 16.1751 5.99707 16.4386 5.99707C16.7021 5.99707 16.959 6.07909 17.1738 6.23175C17.3886 6.38441 17.5505 6.60013 17.6371 6.84899M51.0001 19.5C51.0001 19.1022 50.8421 18.7206 50.5608 18.4393C50.2795 18.158 49.8979 18 49.5001 18H37.5001C37.1023 18 36.7207 18.158 36.4394 18.4393C36.1581 18.7206 36.0001 19.1022 36.0001 19.5C36.0001 19.8978 36.1581 20.2793 36.4394 20.5606C36.7207 20.842 37.1023 21 37.5001 21H45.8791L33.0001 33.879L28.0621 28.938C27.9228 28.7983 27.7572 28.6875 27.575 28.6119C27.3928 28.5362 27.1974 28.4973 27.0001 28.4973C26.8028 28.4973 26.6074 28.5362 26.4252 28.6119C26.243 28.6875 26.0774 28.7983 25.9381 28.938L9.4381 45.438C9.15644 45.7196 8.9982 46.1017 8.9982 46.5C8.9982 46.8983 9.15644 47.2803 9.4381 47.562C9.71976 47.8436 10.1018 48.0019 10.5001 48.0019C10.8984 48.0019 11.2804 47.8436 11.5621 47.562L27.0001 32.121L31.9381 37.059C32.2194 37.3402 32.6009 37.4982 32.9986 37.4982C33.3963 37.4982 33.7778 37.3402 34.0591 37.059L48.0001 23.124V31.5C48.0001 31.8978 48.1581 32.2793 48.4394 32.5606C48.7207 32.842 49.1023 33 49.5001 33C49.8979 33 50.2795 32.842 50.5608 32.5606C50.8421 32.2793 51.0001 31.8978 51.0001 31.5V19.5ZM48.0511 44.895L50.3491 45.639L50.3941 45.651C50.5264 45.6977 50.6461 45.7744 50.7439 45.8751C50.8416 45.9758 50.9147 46.0978 50.9574 46.2314C51.0001 46.3651 51.0113 46.5069 50.9901 46.6456C50.9689 46.7843 50.9158 46.9162 50.8351 47.031C50.7262 47.1844 50.572 47.2998 50.3941 47.361L48.0991 48.105C47.4007 48.3373 46.766 48.7291 46.2453 49.2493C45.7245 49.7695 45.3321 50.4038 45.0991 51.102L44.3551 53.394C44.293 53.5712 44.1773 53.7247 44.0242 53.8333C43.871 53.942 43.6879 54.0003 43.5001 54.0003C43.3123 54.0003 43.1292 53.942 42.976 53.8333C42.8228 53.7247 42.7072 53.5712 42.6451 53.394L41.8981 51.102C41.6666 50.4025 41.2751 49.7666 40.7549 49.2448C40.2346 48.7229 39.5999 48.3296 38.9011 48.096L36.6061 47.349C36.474 47.3019 36.3546 47.225 36.2572 47.1241C36.1598 47.0233 36.0871 46.9013 36.0447 46.7677C36.0023 46.634 35.9913 46.4924 36.0127 46.3539C36.0342 46.2153 36.0873 46.0836 36.1681 45.969C36.2762 45.8161 36.4293 45.7007 36.6061 45.639L38.9011 44.895C39.5903 44.6567 40.2152 44.2625 40.7272 43.7432C41.2392 43.2239 41.6245 42.5935 41.8531 41.901L42.6001 39.606C42.6622 39.4288 42.7778 39.2753 42.931 39.1666C43.0842 39.058 43.2673 38.9997 43.4551 38.9997C43.6429 38.9997 43.826 39.058 43.9792 39.1666C44.1323 39.2753 44.248 39.4288 44.3101 39.606L45.0571 41.901C45.2899 42.598 45.6816 43.2313 46.2012 43.7509C46.7208 44.2705 47.3541 44.6622 48.0511 44.895Z" fill="#CCCCCC"/>
</svg>
