<svg width="60" height="60" viewBox="0 0 60 60" fill="none" xmlns="http://www.w3.org/2000/svg">
<path d="M7.5 24.3749V21.5624C7.4999 20.3321 7.76886 19.1167 8.28802 18.0013C8.80718 16.8859 9.56398 15.8975 10.5054 15.1054C11.4468 14.3134 12.5501 13.7367 13.7378 13.416C14.9256 13.0952 16.1691 13.0381 17.3813 13.2487C18.1702 10.5115 19.8278 8.10512 22.1039 6.39237C24.3801 4.67963 27.1514 3.75342 30 3.75342C32.8486 3.75342 35.6199 4.67963 37.8961 6.39237C40.1722 8.10512 41.8298 10.5115 42.6187 13.2487C43.8309 13.0381 45.0744 13.0952 46.2622 13.416C47.4499 13.7367 48.5532 14.3134 49.4946 15.1054C50.436 15.8975 51.1928 16.8859 51.712 18.0013C52.2311 19.1167 52.5001 20.3321 52.5 21.5624V24.3749C52.5008 30.0183 50.3809 35.4559 46.5607 39.6095C42.7404 43.7632 37.4987 46.3296 31.875 46.7999V52.4999H28.125V46.7999C22.5013 46.3296 17.2596 43.7632 13.4393 39.6095C9.61908 35.4559 7.49918 30.0183 7.5 24.3749ZM24.3225 22.4962H35.6775C35.5108 21.0103 35.7425 19.5068 36.3488 18.14C36.9551 16.7732 37.9141 15.5924 39.1275 14.7187C38.6418 12.6628 37.4763 10.8311 35.8197 9.52022C34.1631 8.20939 32.1125 7.49622 30 7.49622C27.8875 7.49622 25.8369 8.20939 24.1803 9.52022C22.5237 10.8311 21.3582 12.6628 20.8725 14.7187C22.0865 15.5927 23.0459 16.7741 23.6522 18.1416C24.2585 19.5091 24.4899 21.0134 24.3225 22.4999V22.4962ZM20.0513 22.4962C20.1903 21.8788 20.1887 21.2382 20.0466 20.6216C19.9045 20.0049 19.6255 19.4282 19.2302 18.934C18.835 18.4399 18.3337 18.041 17.7634 17.7668C17.1931 17.4927 16.5684 17.3503 15.9356 17.3503C15.3028 17.3503 14.6782 17.4927 14.1079 17.7668C13.5376 18.041 13.0362 18.4399 12.641 18.934C12.2458 19.4282 11.9668 20.0049 11.8247 20.6216C11.6825 21.2382 11.6809 21.8788 11.82 22.4962H20.0513ZM39.9487 22.4962H48.1763C48.3153 21.8788 48.3137 21.2382 48.1716 20.6216C48.0295 20.0049 47.7505 19.4282 47.3552 18.934C46.96 18.4399 46.4587 18.041 45.8884 17.7668C45.3181 17.4927 44.6934 17.3503 44.0606 17.3503C43.4279 17.3503 42.8032 17.4927 42.2329 17.7668C41.6626 18.041 41.1612 18.4399 40.766 18.934C40.3708 19.4282 40.0918 20.0049 39.9497 20.6216C39.8075 21.2382 39.8059 21.8788 39.945 22.4962H39.9487ZM30 43.1249C34.6488 43.1249 39.1319 41.3978 42.5792 38.279C46.0265 35.1601 48.1923 30.8718 48.6562 26.2462H11.3438C11.8077 30.8718 13.9735 35.1601 17.4208 38.279C20.8681 41.3978 25.3512 43.1249 30 43.1249ZM22.5 52.5037H37.5C37.9973 52.5037 38.4742 52.7012 38.8258 53.0528C39.1775 53.4045 39.375 53.8814 39.375 54.3787C39.375 54.8759 39.1775 55.3528 38.8258 55.7045C38.4742 56.0561 37.9973 56.2537 37.5 56.2537H22.5C22.0027 56.2537 21.5258 56.0561 21.1742 55.7045C20.8225 55.3528 20.625 54.8759 20.625 54.3787C20.625 53.8814 20.8225 53.4045 21.1742 53.0528C21.5258 52.7012 22.0027 52.5037 22.5 52.5037Z" fill="#CCCCCC"/>
</svg>
