<svg width="28" height="38" viewBox="0 0 28 38" fill="none" xmlns="http://www.w3.org/2000/svg">
<path fill-rule="evenodd" clip-rule="evenodd" d="M0 13.75C0 10.1033 1.44866 6.60591 4.02728 4.02728C6.60591 1.44866 10.1033 0 13.75 0C17.3967 0 20.8941 1.44866 23.4727 4.02728C26.0513 6.60591 27.5 10.1033 27.5 13.75C27.5 20.4025 24.185 26.2975 20.99 30.45C19.2312 32.7261 17.2616 34.8313 15.1075 36.7375L14.5775 37.1875L14.545 37.215L14.535 37.2225H14.5325L13.75 36.25L13.0325 37.275L13.0275 37.27L13.0175 37.2625L12.985 37.24L12.8675 37.155L12.445 36.8325C11.9414 36.4379 11.4495 36.0286 10.97 35.605C9.35712 34.1796 7.86997 32.618 6.525 30.9375C3.3 26.9075 0 21.0125 0 13.75ZM13.75 36.25L13.0325 37.275C13.2542 37.4302 13.5203 37.5092 13.7908 37.5002C14.0613 37.4912 14.3216 37.3921 14.5325 37.2225L13.75 36.25ZM13.705 34.6425C15.6419 32.9003 17.4175 30.9867 19.01 28.925C22.065 24.9525 25 19.6 25 13.75C25 10.7663 23.8147 7.90483 21.705 5.79505C19.5952 3.68526 16.7337 2.5 13.75 2.5C10.7663 2.5 7.90483 3.68526 5.79505 5.79505C3.68527 7.90483 2.5 10.7663 2.5 13.75C2.5 20.2375 5.45 25.5925 8.475 29.375C10.0267 31.3113 11.7799 33.077 13.705 34.6425ZM13.75 10C12.7554 10 11.8016 10.3951 11.0983 11.0983C10.3951 11.8016 10 12.7554 10 13.75C10 14.7446 10.3951 15.6984 11.0983 16.4017C11.8016 17.1049 12.7554 17.5 13.75 17.5C14.7446 17.5 15.6984 17.1049 16.4017 16.4017C17.1049 15.6984 17.5 14.7446 17.5 13.75C17.5 12.7554 17.1049 11.8016 16.4017 11.0983C15.6984 10.3951 14.7446 10 13.75 10ZM7.5 13.75C7.5 12.0924 8.15848 10.5027 9.33058 9.33058C10.5027 8.15848 12.0924 7.5 13.75 7.5C15.4076 7.5 16.9973 8.15848 18.1694 9.33058C19.3415 10.5027 20 12.0924 20 13.75C20 15.4076 19.3415 16.9973 18.1694 18.1694C16.9973 19.3415 15.4076 20 13.75 20C12.0924 20 10.5027 19.3415 9.33058 18.1694C8.15848 16.9973 7.5 15.4076 7.5 13.75Z" fill="#CCCCCC"/>
</svg>
