<svg width="53" height="10" viewBox="0 0 53 10" fill="none" xmlns="http://www.w3.org/2000/svg">
<path fill-rule="evenodd" clip-rule="evenodd" d="M20.0006 1.04233C20.0556 1.3692 19.9785 1.70453 19.7863 1.97458C19.594 2.24462 19.3024 2.42726 18.9756 2.48233C12.8892 3.50416 7.09 5.80937 1.96308 9.24483C1.82676 9.33951 1.67294 9.4061 1.5106 9.44071C1.34827 9.47531 1.18067 9.47724 1.01758 9.44637C0.854487 9.41551 0.699178 9.35248 0.560711 9.26095C0.422245 9.16942 0.303393 9.05123 0.211093 8.91328C0.118792 8.77533 0.0548902 8.62037 0.0231165 8.45746C-0.00865727 8.29454 -0.00766674 8.12694 0.0260302 7.96441C0.0597272 7.80188 0.125456 7.64769 0.219381 7.51084C0.313305 7.37399 0.433545 7.25721 0.573084 7.16733C5.99393 3.53519 12.1255 1.0979 18.5606 0.0173266C18.8875 -0.0376632 19.2228 0.0394284 19.4928 0.231646C19.7629 0.423863 19.9455 0.715466 20.0006 1.04233ZM32.5356 1.04233C32.5907 0.715466 32.7733 0.423863 33.0433 0.231646C33.3134 0.0394284 33.6487 -0.0376632 33.9756 0.0173266C40.4107 1.0979 46.5422 3.53519 51.9631 7.16733C52.1074 7.25497 52.2324 7.37094 52.3306 7.50822C52.4289 7.64551 52.4983 7.80127 52.5347 7.96612C52.5711 8.13096 52.5737 8.30147 52.5424 8.46736C52.5112 8.63325 52.4466 8.79108 52.3526 8.93134C52.2587 9.07159 52.1373 9.19136 51.9958 9.28343C51.8543 9.37549 51.6956 9.43793 51.5293 9.46699C51.363 9.49605 51.1925 9.49113 51.0282 9.45252C50.8639 9.4139 50.709 9.3424 50.5731 9.24233C45.446 5.80775 39.6467 3.5034 33.5606 2.48233C33.2337 2.42726 32.9421 2.24462 32.7499 1.97458C32.5577 1.70453 32.4806 1.3692 32.5356 1.04233Z" fill="#CCCCCC"/>
</svg>
